Coordinates
version=1
nRows=32
nColumns=12
inDegrees=yes

Units are S.I. units (second, meters, Newtons, ...)
Angles are in degrees

endheader
time	SC_y	SC_z	SC_x	AC_y	AC_z	AC_x	GH_y	GH_z	GH_yy	EL_x	PS_y
       0.0              -28.93           38.6           70.4          31.52         -11.46          17.28         -149.2         -2.571         -95.79          96.23          25.21
   0.02209              -28.93           38.6           70.4          31.52         -11.45          17.27         -149.2         -2.573         -95.75          96.24          25.22
   0.04418              -28.93          38.59          70.39          31.52         -11.45          17.27         -149.2         -2.576         -95.71          96.25          25.23
   0.06627              -28.93          38.59          70.39          31.52         -11.45          17.26         -149.2         -2.579         -95.67          96.25          25.24
   0.08836              -28.93          38.58          70.38          31.52         -11.44          17.26         -149.2         -2.582         -95.63          96.26          25.25
    0.1105              -28.92          38.57          70.37          31.52         -11.44          17.25         -149.2         -2.585         -95.58          96.26          25.27
    0.1325              -28.92          38.56          70.36          31.52         -11.44          17.24         -149.2         -2.588         -95.53          96.27          25.28
    0.1546              -28.92          38.56          70.36          31.52         -11.43          17.24         -149.2         -2.592         -95.48          96.28          25.29
    0.1767              -28.92          38.55          70.35          31.52         -11.43          17.23         -149.2         -2.596         -95.42          96.29          25.31
    0.1988              -28.92          38.54          70.34          31.52         -11.42          17.22         -149.2           -2.6         -95.36           96.3          25.32
    0.2209              -28.91          38.53          70.33          31.52         -11.42          17.21         -149.2         -2.605         -95.29          96.31          25.34
     0.243              -28.91          38.52          70.32          31.52         -11.41           17.2         -149.2         -2.609         -95.22          96.32          25.36
    0.2651              -28.91          38.51          70.31          31.52          -11.4          17.19         -149.1         -2.615         -95.15          96.33          25.38
    0.2872               -28.9          38.49          70.29          31.52          -11.4          17.18         -149.1          -2.62         -95.06          96.34           25.4
    0.3093               -28.9          38.48          70.28          31.52         -11.39          17.17         -149.1         -2.627         -94.97          96.35          25.43
    0.3314               -28.9          38.46          70.27          31.53         -11.38          17.16         -149.1         -2.633         -94.87          96.37          25.45
    0.3535              -28.89          38.45          70.25          31.53         -11.37          17.14         -149.1          -2.64         -94.77          96.38          25.48
    0.3756              -28.89          38.43          70.23          31.53         -11.36          17.13         -149.1         -2.648         -94.65           96.4          25.51
    0.3976              -28.88          38.41          70.21          31.53         -11.35          17.11         -149.1         -2.657         -94.53          96.42          25.54
    0.4197              -28.88          38.39          70.19          31.53         -11.34          17.09         -149.0         -2.666         -94.39          96.44          25.58
    0.4418              -28.87          38.37          70.17          31.53         -11.33          17.07         -149.0         -2.677         -94.24          96.46          25.62
    0.4639              -28.86          38.34          70.14          31.53         -11.32          17.05         -149.0         -2.688         -94.07          96.48          25.66
     0.486              -28.86          38.31          70.12          31.53          -11.3          17.02         -149.0           -2.7         -93.89          96.51          25.71
    0.5081              -28.85          38.28          70.09          31.53         -11.28           17.0         -148.9         -2.714         -93.68          96.54          25.76
    0.5302              -28.84          38.25          70.05          31.53         -11.27          16.97         -148.9          -2.73         -93.46          96.57          25.82
    0.5523              -28.83          38.21          70.01          31.54         -11.24          16.93         -148.9         -2.747          -93.2          96.61          25.89
    0.5744              -28.82          38.17          69.97          31.54         -11.22          16.89         -148.8         -2.766         -92.92          96.65          25.96
    0.5965              -28.81          38.12          69.92          31.54         -11.19          16.85         -148.8         -2.788          -92.6          96.69          26.04
    0.6186              -28.79          38.06          69.87          31.54         -11.16           16.8         -148.7         -2.813         -92.24          96.74          26.14
    0.6406              -28.77           38.0          69.81          31.54         -11.13          16.75         -148.7          -2.84         -91.83           96.8          26.25
    0.6627              -28.76          37.93          69.74          31.55         -11.09          16.68         -148.6         -2.872         -91.37          96.87          26.37
    0.6848              -28.73          37.85          69.66          31.55         -11.05          16.61         -148.6         -2.909         -90.83          96.95          26.51
